Results
version=1
nRows=14
nColumns=24
inDegrees=yes
endheader
time	pelvis_tilt	pelvis_list	pelvis_rotation	pelvis_tx	pelvis_ty	pelvis_tz	hip_flexion_r	hip_adduction_r	hip_rotation_r	knee_angle_r	ankle_angle_r	subtalar_angle_r	mtp_angle_r	hip_flexion_l	hip_adduction_l	hip_rotation_l	knee_angle_l	ankle_angle_l	subtalar_angle_l	mtp_angle_l	lumbar_extension	lumbar_bending	lumbar_rotation
      0.65000000	      0.11891081	      9.68143273	     -2.92113171	     -0.76882894	      1.05842187	      0.32571564	     25.96148732	     -5.25376869	    -12.13363266	     -1.66353373	     10.82439281	      3.68025743	     -0.29037958	    -18.31567194	     14.85029439	     -0.73059177	     -3.02247135	      4.74676530	     -2.50099891	     -0.72915162	      5.78505718	     -6.90410279	      0.64752919
      0.65416667	      0.11595622	      9.65277122	     -2.87664472	     -0.76296123	      1.05826232	      0.32578363	     25.87758432	     -5.22812998	    -11.97360807	     -2.03010087	     10.85855391	      3.64812768	     -0.30465143	    -18.46477333	     14.79589540	     -0.66238934	     -3.36412803	      4.63825276	     -2.48320907	     -0.76116253	      5.87154696	     -6.82497254	      0.62337297
      0.65833333	      0.12076160	      9.54775186	     -2.87609466	     -0.75682791	      1.05813049	      0.32594943	     25.71889041	     -5.09873115	    -11.58121321	     -2.33211496	     11.05867471	      3.36732590	     -0.35724525	    -18.66372293	     14.66838463	     -0.51625227	     -3.61740355	      4.26863804	     -2.50322201	     -0.87061457	      5.93287763	     -6.64597470	      0.52355327
      0.66250000	      0.12193446	      9.51614356	     -2.80618814	     -0.75092721	      1.05802453	      0.32601747	     25.60663313	     -5.08254822	    -11.42224727	     -2.69775889	     11.03046363	      3.28922182	     -0.37082723	    -18.79060986	     14.59944268	     -0.50256428	     -4.01479581	      4.18687846	     -2.54581154	     -0.89596484	      5.99448581	     -6.58681632	      0.50360174
      0.66666667	      0.18577817	      9.37896934	     -2.83248325	     -0.74472524	      1.05800810	      0.32625837	     25.33535042	     -4.91180838	    -10.84073678	     -2.92954771	     10.99645217	      2.69254906	     -0.44567900	    -19.04486368	     14.44188682	     -0.35391459	     -4.26474588	      3.65880414	     -2.68204654	     -1.02493011	      5.99989699	     -6.36381236	      0.36083234
      0.67083333	      0.18666679	      9.34532322	     -2.75267029	     -0.73878844	      1.05795591	      0.32634004	     25.20324831	     -4.89923853	    -10.69899017	     -3.28722196	     10.92763891	      2.61041402	     -0.45859980	    -19.14584630	     14.36587128	     -0.36460161	     -4.70288197	      3.59492152	     -2.73436298	     -1.04466997	      6.04751721	     -6.32190171	      0.34736512
      0.67500000	      0.32777366	      9.19534527	     -2.80786239	     -0.73266977	      1.05807605	      0.32674935	     24.83266805	     -4.69936149	    -10.06477561	     -3.46252740	     10.49223734	      1.53109031	     -0.60507321	    -19.42657866	     14.19043953	     -0.43192473	     -5.03550489	      3.05173390	     -2.98311558	     -1.24003878	      5.89993190	     -6.15198499	      0.15925975
      0.67916667	      0.30954177	      9.13664984	     -2.71723427	     -0.72659489	      1.05805372	      0.32683522	     24.67252113	     -4.66558402	     -9.87618167	     -3.75282287	     10.42191312	      1.53761714	     -0.61577932	    -19.50760161	     14.07925342	     -0.36262728	     -5.47781977	      2.96098994	     -2.96670100	     -1.25416354	      5.98267717	     -6.08041090	      0.15208902
      0.68333333	      0.37104755	      8.95968447	     -2.70613420	     -0.72025937	      1.05817416	      0.32706749	     24.36632257	     -4.47858281	     -9.59005833	     -3.92977534	      9.95592854	      1.10828950	     -0.69772186	    -19.69558645	     13.86261870	     -0.39737321	     -5.84657419	      2.43379626	     -2.92069001	     -1.33975578	      6.03542076	     -5.78781181	      0.04097717
      0.68750000	      0.34476859	      8.88411643	     -2.61076953	     -0.71415242	      1.05821161	      0.32719636	     24.18708103	     -4.42665103	     -9.42005407	     -4.16524959	      9.85812372	      1.10995199	     -0.70646777	    -19.73198597	     13.72509035	     -0.37081406	     -6.35898668	      2.33177255	     -2.93615644	     -1.34857336	      6.08987064	     -5.72942291	      0.03349870
      0.69166667	      0.33161501	      8.65674586	     -2.52860693	     -0.70756912	      1.05835329	      0.32738643	     23.88879722	     -4.20693532	     -9.18802957	     -4.24277973	      9.25008345	      0.86964057	     -0.75233400	    -19.83060538	     13.42252054	     -0.40542286	     -6.76129926	      1.74556990	     -2.87828825	     -1.38233692	      6.17881910	     -5.44468524	     -0.05483509
      0.69583333	      0.51367516	      8.48982694	     -2.55072812	     -0.70146716	      1.05870126	      0.32776939	     23.43911254	     -4.02090922	     -8.78030958	     -4.33868428	      8.60458457	      0.03735223	     -0.88137708	    -20.06015451	     13.21134795	     -0.58835923	     -7.25775521	      1.34151043	     -2.89291411	     -1.42272971	      6.02144483	     -5.22546148	     -0.22897055
      0.70000000	      0.49680654	      8.41197292	     -2.45328573	     -0.69537737	      1.05883887	      0.32787549	     23.23742332	     -3.97911175	     -8.68574120	     -4.53884613	      8.44347585	      0.07415484	     -0.88978358	    -20.04733121	     13.06519119	     -0.61209508	     -7.85437100	      1.17376548	     -2.88643711	     -1.42484328	      6.10862165	     -5.12698304	     -0.23498530
      0.70416667	      0.48265564	      8.14370658	     -2.38475908	     -0.68867347	      1.05906548	      0.32801336	     22.94968390	     -3.72980355	     -8.76396662	     -4.62155912	      7.58474880	     -0.02747817	     -0.93335646	    -20.08877499	     12.72441226	     -0.79397903	     -8.33910370	      0.42839736	     -2.72217086	     -1.42077144	      6.26414231	     -4.74184874	     -0.31859347
